<svg xmlns="http://www.w3.org/2000/svg"  viewBox="0 0 48 48" width="96px" height="96px"><rect width="28" height="44" x="6" y="2" fill="#bec6c6" rx="3"/><path fill="#414141" d="M31,47H9a4,4,0,0,1-4-4V5A4,4,0,0,1,9,1H31a4,4,0,0,1,4,4V43A4,4,0,0,1,31,47ZM9,3A2,2,0,0,0,7,5V43a2,2,0,0,0,2,2H31a2,2,0,0,0,2-2V5a2,2,0,0,0-2-2Z"/><rect width="22" height="38" x="9" y="5" fill="#f8f9f9"/><path fill="#bec6c6" d="M23,7H17a2,2,0,0,1-2-2H25A2,2,0,0,1,23,7Z"/><path fill="#bec6c6" d="M42,12v8a2,2,0,0,1-2,2H24l-4,2V12a2,2,0,0,1,2-2H40A2,2,0,0,1,42,12Z"/><path fill="#414141" d="M20,25a1,1,0,0,1-1-1V12a3,3,0,0,1,3-3H40a3,3,0,0,1,3,3v8a3,3,0,0,1-3,3H24.24C20.16,25,20.33,25,20,25Zm2-14a1,1,0,0,0-1,1V22.38C23.79,21,23.68,21,24,21H40a1,1,0,0,0,1-1V12a1,1,0,0,0-1-1Z"/><path fill="#f8f9f9" d="M27,19a3,3,0,0,1-3-3V14a1,1,0,0,1,2,0v2a1,1,0,0,0,2,0V14a1,1,0,0,1,2,0v2A3,3,0,0,1,27,19Z"/><path fill="#f8f9f9" d="M37,19a1,1,0,0,1-.71-.29l-4-4a1,1,0,0,1,1.42-1.42l4,4A1,1,0,0,1,37,19Z"/><path fill="#f8f9f9" d="M33,19a1,1,0,0,1-.71-1.71l4-4a1,1,0,0,1,1.42,1.42l-4,4A1,1,0,0,1,33,19Z"/><path fill="#bec6c6" d="M20,35H12a1,1,0,0,1-1-1V28a1,1,0,0,1,1-1h8a1,1,0,0,1,1,1v6A1,1,0,0,1,20,35Zm-7-2h6V29H13Z"/><path fill="#bec6c6" d="M20,35c-.47,0,.05.29-8.6-6.2a1,1,0,0,1,1.2-1.6l8,6A1,1,0,0,1,20,35Z"/><rect width="10" height="4" x="11" y="37" fill="#bec6c6" rx="1"/><rect width="6" height="14" x="23" y="27" fill="#6457ff" rx="1"/></svg>