<svg xmlns="http://www.w3.org/2000/svg" xmlns:xlink="http://www.w3.org/1999/xlink" width="80" zoomAndPan="magnify" viewBox="0 0 60 30.000001" height="40" preserveAspectRatio="xMidYMid meet" version="1.0"><defs><g/><clipPath id="a607997eab"><path d="M 5.523438 12.980469 L 22.945312 12.980469 L 22.945312 23.144531 L 5.523438 23.144531 Z M 5.523438 12.980469 " clip-rule="nonzero"/></clipPath><clipPath id="69dccccbde"><path d="M 6 23.074219 L 42 23.074219 L 42 24.527344 L 6 24.527344 Z M 6 23.074219 " clip-rule="nonzero"/></clipPath><clipPath id="b15cb77916"><path d="M 38 23.074219 L 48 23.074219 L 48 24 L 38 24 Z M 38 23.074219 " clip-rule="nonzero"/></clipPath><clipPath id="96698cdc03"><path d="M 44 24 L 54 24 L 54 24.527344 L 44 24.527344 Z M 44 24 " clip-rule="nonzero"/></clipPath></defs><g clip-path="url(#a607997eab)"><path fill="#000000" d="M 7.285156 12.980469 C 6.355469 12.980469 5.601562 13.738281 5.601562 14.667969 L 5.601562 17.683594 C 5.601562 18.613281 6.355469 19.371094 7.285156 19.371094 L 14.035156 19.371094 C 14.148438 19.371094 14.238281 19.277344 14.238281 19.164062 C 14.238281 19.050781 14.148438 18.957031 14.035156 18.957031 L 7.285156 18.957031 C 6.582031 18.957031 6.011719 18.386719 6.011719 17.683594 L 6.011719 14.667969 C 6.011719 13.964844 6.582031 13.394531 7.285156 13.394531 L 20 13.394531 C 20.113281 13.394531 20.207031 13.300781 20.207031 13.1875 C 20.207031 13.074219 20.113281 12.980469 20 12.980469 Z M 17.917969 14.839844 C 17.898438 14.839844 17.878906 14.847656 17.859375 14.855469 C 17.785156 14.886719 17.738281 14.960938 17.738281 15.042969 L 17.738281 21.546875 C 17.738281 21.628906 17.785156 21.703125 17.859375 21.738281 C 17.9375 21.769531 18.023438 21.753906 18.085938 21.695312 L 19.484375 20.363281 L 20.625 23.007812 C 20.648438 23.058594 20.6875 23.097656 20.742188 23.117188 C 20.765625 23.128906 20.789062 23.132812 20.8125 23.132812 C 20.84375 23.132812 20.871094 23.125 20.898438 23.113281 L 21.765625 22.71875 C 21.867188 22.671875 21.914062 22.550781 21.867188 22.449219 L 20.6875 19.835938 L 22.679688 19.664062 C 22.761719 19.65625 22.832031 19.601562 22.859375 19.523438 C 22.882812 19.449219 22.863281 19.363281 22.804688 19.308594 L 18.082031 14.894531 C 18.039062 14.851562 17.976562 14.832031 17.917969 14.839844 Z M 14.667969 14.863281 L 13.769531 17.15625 L 14.113281 17.15625 L 15.015625 14.863281 Z M 15.894531 14.863281 L 14.996094 17.15625 L 15.339844 17.15625 L 16.242188 14.863281 Z M 7.863281 15.039062 L 7.863281 16.933594 L 8.191406 16.933594 L 8.191406 16.253906 C 8.191406 16.050781 8.328125 15.886719 8.523438 15.886719 C 8.699219 15.886719 8.824219 15.988281 8.824219 16.234375 L 8.824219 16.933594 L 9.152344 16.933594 L 9.152344 16.230469 C 9.152344 15.839844 8.988281 15.582031 8.609375 15.582031 C 8.457031 15.582031 8.3125 15.628906 8.191406 15.78125 L 8.191406 15.039062 Z M 9.894531 15.226562 L 9.566406 15.257812 L 9.566406 15.605469 L 9.316406 15.605469 L 9.316406 15.886719 L 9.566406 15.886719 L 9.566406 16.464844 C 9.566406 16.796875 9.753906 16.960938 10.042969 16.949219 C 10.144531 16.949219 10.222656 16.929688 10.316406 16.894531 L 10.222656 16.613281 C 10.175781 16.636719 10.117188 16.652344 10.066406 16.652344 C 9.960938 16.652344 9.890625 16.589844 9.890625 16.464844 L 9.890625 15.886719 L 10.261719 15.886719 L 10.261719 15.605469 L 9.894531 15.605469 Z M 10.972656 15.226562 L 10.644531 15.257812 L 10.644531 15.605469 L 10.394531 15.605469 L 10.394531 15.886719 L 10.644531 15.886719 L 10.644531 16.464844 C 10.644531 16.796875 10.832031 16.960938 11.121094 16.949219 C 11.21875 16.949219 11.296875 16.929688 11.394531 16.894531 L 11.300781 16.613281 C 11.253906 16.636719 11.195312 16.652344 11.140625 16.652344 C 11.039062 16.652344 10.96875 16.589844 10.96875 16.464844 L 10.96875 15.886719 L 11.339844 15.886719 L 11.339844 15.605469 L 10.972656 15.605469 Z M 12.347656 15.570312 C 12.195312 15.570312 12.015625 15.636719 11.914062 15.785156 L 11.890625 15.601562 L 11.585938 15.601562 L 11.585938 17.492188 L 11.914062 17.492188 L 11.914062 16.777344 C 12.007812 16.921875 12.214844 16.964844 12.355469 16.964844 C 12.78125 16.964844 13.027344 16.65625 13.027344 16.269531 C 13.027344 15.875 12.757812 15.570312 12.347656 15.570312 Z M 18.21875 15.585938 L 22.183594 19.292969 L 20.363281 19.449219 C 20.296875 19.457031 20.238281 19.492188 20.203125 19.550781 C 20.171875 19.609375 20.167969 19.679688 20.195312 19.738281 L 21.40625 22.429688 L 20.917969 22.652344 L 19.746094 19.929688 C 19.71875 19.867188 19.664062 19.820312 19.597656 19.808594 C 19.582031 19.804688 19.570312 19.804688 19.554688 19.804688 C 19.503906 19.804688 19.453125 19.824219 19.414062 19.859375 L 18.148438 21.066406 L 18.148438 15.929688 L 18.640625 17.042969 C 18.660156 17.082031 18.695312 17.101562 18.734375 17.101562 C 18.75 17.101562 18.765625 17.101562 18.777344 17.09375 C 18.832031 17.070312 18.851562 17.011719 18.832031 16.957031 Z M 13.476562 15.789062 C 13.378906 15.789062 13.285156 15.851562 13.285156 15.980469 C 13.285156 16.230469 13.667969 16.230469 13.667969 15.980469 C 13.667969 15.851562 13.570312 15.789062 13.476562 15.789062 Z M 12.320312 15.890625 C 12.558594 15.890625 12.699219 16.058594 12.699219 16.269531 C 12.699219 16.476562 12.546875 16.648438 12.320312 16.648438 C 12.097656 16.648438 11.941406 16.476562 11.941406 16.269531 C 11.941406 16.058594 12.082031 15.890625 12.320312 15.890625 Z M 13.476562 16.574219 C 13.378906 16.574219 13.285156 16.636719 13.285156 16.761719 C 13.285156 17.015625 13.667969 17.015625 13.667969 16.761719 C 13.667969 16.636719 13.570312 16.574219 13.476562 16.574219 Z M 18.855469 17.25 C 18.839844 17.25 18.828125 17.25 18.8125 17.257812 C 18.761719 17.28125 18.738281 17.339844 18.757812 17.390625 L 18.800781 17.484375 C 18.816406 17.527344 18.855469 17.546875 18.894531 17.546875 C 18.90625 17.546875 18.921875 17.546875 18.933594 17.539062 C 18.988281 17.519531 19.011719 17.457031 18.988281 17.40625 L 18.949219 17.3125 C 18.933594 17.273438 18.894531 17.25 18.855469 17.25 Z M 18.855469 17.25 " fill-opacity="1" fill-rule="nonzero"/></g><g clip-path="url(#69dccccbde)"><path fill="#000000" d="M 41.636719 24.269531 C 36.53125 24.257812 30.136719 24.253906 23.953125 24.25 C 17.769531 24.25 11.375 24.246094 6.277344 24.234375 C 6.191406 24.234375 6.125 24.175781 6.125 24.101562 C 6.125 24.027344 6.195312 23.96875 6.28125 23.96875 C 11.378906 23.980469 17.769531 23.984375 23.953125 23.984375 C 30.140625 23.988281 36.535156 23.992188 41.636719 24.003906 C 41.722656 24.003906 41.792969 24.0625 41.792969 24.136719 C 41.792969 24.210938 41.722656 24.269531 41.636719 24.269531 Z M 41.636719 24.269531 " fill-opacity="1" fill-rule="nonzero"/></g><g clip-path="url(#b15cb77916)"><path fill="#000000" d="M 47.808594 23.515625 C 47.804688 23.515625 47.804688 23.515625 47.800781 23.515625 C 46.34375 23.460938 44.757812 23.445312 43.222656 23.425781 C 41.703125 23.410156 40.128906 23.394531 38.683594 23.339844 C 38.597656 23.335938 38.53125 23.273438 38.535156 23.203125 C 38.539062 23.128906 38.613281 23.066406 38.695312 23.074219 C 40.136719 23.128906 41.707031 23.144531 43.226562 23.160156 C 44.765625 23.179688 46.355469 23.195312 47.816406 23.25 C 47.902344 23.253906 47.96875 23.316406 47.964844 23.390625 C 47.960938 23.460938 47.890625 23.515625 47.808594 23.515625 Z M 47.808594 23.515625 " fill-opacity="1" fill-rule="nonzero"/></g><g clip-path="url(#96698cdc03)"><path fill="#000000" d="M 53.398438 24.519531 C 53.394531 24.519531 53.394531 24.519531 53.390625 24.519531 C 52.042969 24.472656 50.574219 24.457031 49.152344 24.445312 C 47.746094 24.429688 46.289062 24.417969 44.953125 24.371094 C 44.867188 24.367188 44.800781 24.304688 44.804688 24.230469 C 44.808594 24.160156 44.878906 24.101562 44.964844 24.105469 C 46.296875 24.152344 47.75 24.164062 49.15625 24.179688 C 50.582031 24.191406 52.050781 24.207031 53.402344 24.257812 C 53.488281 24.257812 53.554688 24.320312 53.554688 24.394531 C 53.550781 24.464844 53.480469 24.519531 53.398438 24.519531 Z M 53.398438 24.519531 " fill-opacity="1" fill-rule="nonzero"/></g><g fill="#043f83" fill-opacity="1"><g transform="translate(5.524289, 11.5808)"><g><path d="M 2.84375 -6.53125 C 2.875 -6.601562 2.929688 -6.664062 3.015625 -6.71875 C 3.097656 -6.78125 3.1875 -6.8125 3.28125 -6.8125 C 3.363281 -6.8125 3.445312 -6.78125 3.53125 -6.71875 C 3.613281 -6.664062 3.671875 -6.601562 3.703125 -6.53125 L 6.28125 -0.5625 C 6.300781 -0.5 6.3125 -0.429688 6.3125 -0.359375 C 6.3125 -0.234375 6.265625 -0.125 6.171875 -0.03125 C 6.085938 0.0625 5.976562 0.109375 5.84375 0.109375 C 5.757812 0.109375 5.675781 0.078125 5.59375 0.015625 C 5.507812 -0.0351562 5.453125 -0.101562 5.421875 -0.1875 L 4.609375 -2.046875 L 1.953125 -2.078125 L 1.125 -0.171875 C 1.09375 -0.0976562 1.035156 -0.0351562 0.953125 0.015625 C 0.867188 0.078125 0.785156 0.109375 0.703125 0.109375 C 0.578125 0.109375 0.46875 0.0664062 0.375 -0.015625 C 0.28125 -0.109375 0.234375 -0.222656 0.234375 -0.359375 C 0.234375 -0.421875 0.25 -0.484375 0.28125 -0.546875 Z M 3.28125 -5.15625 L 2.359375 -3 L 4.203125 -2.984375 Z M 3.28125 -5.15625 "/></g></g></g><g fill="#043f83" fill-opacity="1"><g transform="translate(12.068976, 11.5808)"><g><path d="M 1.375 -4.375 C 1.519531 -4.519531 1.648438 -4.632812 1.765625 -4.71875 C 1.878906 -4.8125 2.03125 -4.898438 2.21875 -4.984375 C 2.414062 -5.066406 2.613281 -5.109375 2.8125 -5.109375 C 3.1875 -5.109375 3.515625 -5.007812 3.796875 -4.8125 C 4.078125 -4.613281 4.285156 -4.351562 4.421875 -4.03125 C 4.566406 -3.71875 4.640625 -3.285156 4.640625 -2.734375 L 4.640625 -0.375 C 4.640625 -0.238281 4.59375 -0.125 4.5 -0.03125 C 4.40625 0.0507812 4.289062 0.09375 4.15625 0.09375 C 4.03125 0.09375 3.921875 0.0507812 3.828125 -0.03125 C 3.742188 -0.125 3.703125 -0.238281 3.703125 -0.375 L 3.703125 -2.734375 C 3.703125 -3.148438 3.65625 -3.457031 3.5625 -3.65625 C 3.5 -3.800781 3.398438 -3.925781 3.265625 -4.03125 C 3.140625 -4.132812 2.988281 -4.1875 2.8125 -4.1875 C 2.351562 -4.1875 2 -4.007812 1.75 -3.65625 C 1.5 -3.3125 1.378906 -2.832031 1.390625 -2.21875 L 1.390625 -0.359375 C 1.390625 -0.234375 1.34375 -0.125 1.25 -0.03125 C 1.15625 0.0625 1.046875 0.109375 0.921875 0.109375 C 0.785156 0.109375 0.671875 0.0625 0.578125 -0.03125 C 0.492188 -0.125 0.453125 -0.234375 0.453125 -0.359375 L 0.4375 -4.65625 C 0.4375 -4.789062 0.472656 -4.898438 0.546875 -4.984375 C 0.617188 -5.078125 0.71875 -5.125 0.84375 -5.125 C 1.0625 -5.125 1.210938 -4.96875 1.296875 -4.65625 Z M 1.375 -4.375 "/></g></g></g><g fill="#043f83" fill-opacity="1"><g transform="translate(17.145783, 11.5808)"><g><path d="M 2.90625 -5.140625 C 3.238281 -5.140625 3.5625 -5.046875 3.875 -4.859375 C 4.195312 -4.671875 4.425781 -4.460938 4.5625 -4.234375 L 4.609375 -4.6875 C 4.609375 -4.8125 4.644531 -4.921875 4.71875 -5.015625 C 4.800781 -5.109375 4.90625 -5.15625 5.03125 -5.15625 C 5.15625 -5.15625 5.265625 -5.109375 5.359375 -5.015625 C 5.453125 -4.921875 5.5 -4.8125 5.5 -4.6875 L 5.5 -4.671875 L 5.484375 -0.34375 C 5.484375 -0.21875 5.4375 -0.109375 5.34375 -0.015625 C 5.257812 0.078125 5.148438 0.125 5.015625 0.125 C 4.890625 0.125 4.789062 0.0820312 4.71875 0 C 4.644531 -0.09375 4.609375 -0.207031 4.609375 -0.34375 L 4.5625 -0.71875 C 4.40625 -0.445312 4.171875 -0.238281 3.859375 -0.09375 C 3.554688 0.0390625 3.238281 0.109375 2.90625 0.109375 C 2.445312 0.109375 2.019531 -0.0078125 1.625 -0.25 C 1.226562 -0.488281 0.914062 -0.804688 0.6875 -1.203125 C 0.457031 -1.609375 0.34375 -2.039062 0.34375 -2.5 C 0.34375 -2.957031 0.453125 -3.390625 0.671875 -3.796875 C 0.898438 -4.203125 1.210938 -4.523438 1.609375 -4.765625 C 2.003906 -5.015625 2.4375 -5.140625 2.90625 -5.140625 Z M 4.53125 -2.515625 C 4.53125 -2.972656 4.375 -3.367188 4.0625 -3.703125 C 3.75 -4.035156 3.363281 -4.203125 2.90625 -4.203125 C 2.445312 -4.203125 2.0625 -4.035156 1.75 -3.703125 C 1.4375 -3.367188 1.28125 -2.972656 1.28125 -2.515625 C 1.28125 -2.054688 1.4375 -1.660156 1.75 -1.328125 C 2.070312 -0.992188 2.457031 -0.828125 2.90625 -0.828125 C 3.351562 -0.828125 3.734375 -0.992188 4.046875 -1.328125 C 4.367188 -1.660156 4.53125 -2.054688 4.53125 -2.515625 Z M 4.53125 -2.515625 "/></g></g></g><g fill="#043f83" fill-opacity="1"><g transform="translate(23.110798, 11.5808)"><g><path d="M 0.890625 -6.828125 C 1.035156 -6.828125 1.15625 -6.773438 1.25 -6.671875 C 1.34375 -6.578125 1.382812 -6.472656 1.375 -6.359375 L 1.375 -0.328125 C 1.375 -0.210938 1.328125 -0.113281 1.234375 -0.03125 C 1.140625 0.0390625 1.039062 0.078125 0.9375 0.078125 C 0.800781 0.078125 0.679688 0.0351562 0.578125 -0.046875 C 0.484375 -0.128906 0.4375 -0.242188 0.4375 -0.390625 L 0.4375 -6.359375 C 0.4375 -6.472656 0.476562 -6.578125 0.5625 -6.671875 C 0.65625 -6.773438 0.765625 -6.828125 0.890625 -6.828125 Z M 0.890625 -6.828125 "/></g></g></g><g fill="#043f83" fill-opacity="1"><g transform="translate(24.933961, 11.5808)"><g><path d="M 0.953125 -5.609375 C 0.804688 -5.609375 0.6875 -5.648438 0.59375 -5.734375 C 0.507812 -5.816406 0.460938 -5.925781 0.453125 -6.0625 L 0.453125 -6.421875 C 0.453125 -6.523438 0.5 -6.613281 0.59375 -6.6875 C 0.695312 -6.769531 0.800781 -6.8125 0.90625 -6.8125 C 1.039062 -6.8125 1.148438 -6.765625 1.234375 -6.671875 C 1.328125 -6.585938 1.375 -6.484375 1.375 -6.359375 L 1.390625 -6.078125 C 1.390625 -5.953125 1.347656 -5.84375 1.265625 -5.75 C 1.179688 -5.65625 1.078125 -5.609375 0.953125 -5.609375 Z M 0.4375 -4.71875 C 0.4375 -4.820312 0.484375 -4.914062 0.578125 -5 C 0.679688 -5.082031 0.785156 -5.125 0.890625 -5.125 C 1.023438 -5.125 1.140625 -5.082031 1.234375 -5 C 1.328125 -4.914062 1.375 -4.804688 1.375 -4.671875 L 1.390625 -0.34375 C 1.390625 -0.21875 1.34375 -0.109375 1.25 -0.015625 C 1.15625 0.0664062 1.046875 0.109375 0.921875 0.109375 C 0.785156 0.109375 0.671875 0.0664062 0.578125 -0.015625 C 0.492188 -0.109375 0.453125 -0.21875 0.453125 -0.34375 Z M 0.4375 -4.71875 "/></g></g></g><g fill="#043f83" fill-opacity="1"><g transform="translate(26.766473, 11.5808)"><g><path d="M 2.8125 -5.125 C 3.257812 -5.125 3.664062 -5.023438 4.03125 -4.828125 C 4.394531 -4.640625 4.660156 -4.378906 4.828125 -4.046875 C 4.867188 -3.984375 4.890625 -3.910156 4.890625 -3.828125 C 4.890625 -3.703125 4.84375 -3.59375 4.75 -3.5 C 4.65625 -3.40625 4.546875 -3.359375 4.421875 -3.359375 C 4.347656 -3.359375 4.269531 -3.378906 4.1875 -3.421875 C 4.101562 -3.472656 4.046875 -3.535156 4.015625 -3.609375 C 3.796875 -3.992188 3.394531 -4.1875 2.8125 -4.1875 C 2.675781 -4.1875 2.535156 -4.175781 2.390625 -4.15625 C 2.242188 -4.132812 2.097656 -4.097656 1.953125 -4.046875 C 1.816406 -3.992188 1.703125 -3.921875 1.609375 -3.828125 C 1.523438 -3.742188 1.484375 -3.644531 1.484375 -3.53125 C 1.484375 -3.457031 1.503906 -3.394531 1.546875 -3.34375 C 1.585938 -3.289062 1.648438 -3.242188 1.734375 -3.203125 C 1.816406 -3.171875 1.898438 -3.140625 1.984375 -3.109375 C 2.066406 -3.085938 2.171875 -3.066406 2.296875 -3.046875 C 2.421875 -3.023438 2.523438 -3.007812 2.609375 -3 C 2.691406 -2.988281 2.789062 -2.976562 2.90625 -2.96875 C 3.03125 -2.957031 3.113281 -2.953125 3.15625 -2.953125 C 3.363281 -2.929688 3.546875 -2.898438 3.703125 -2.859375 C 3.867188 -2.828125 4.039062 -2.773438 4.21875 -2.703125 C 4.394531 -2.640625 4.539062 -2.5625 4.65625 -2.46875 C 4.769531 -2.375 4.863281 -2.25 4.9375 -2.09375 C 5.019531 -1.9375 5.0625 -1.753906 5.0625 -1.546875 C 5.0625 -1.328125 5.019531 -1.125 4.9375 -0.9375 C 4.851562 -0.757812 4.738281 -0.609375 4.59375 -0.484375 C 4.457031 -0.359375 4.289062 -0.25 4.09375 -0.15625 C 3.90625 -0.0703125 3.703125 -0.015625 3.484375 0.015625 C 3.273438 0.0546875 3.054688 0.078125 2.828125 0.078125 C 2.316406 0.078125 1.851562 -0.0195312 1.4375 -0.21875 C 1.019531 -0.425781 0.71875 -0.71875 0.53125 -1.09375 C 0.488281 -1.175781 0.46875 -1.25 0.46875 -1.3125 C 0.46875 -1.445312 0.515625 -1.554688 0.609375 -1.640625 C 0.703125 -1.734375 0.8125 -1.78125 0.9375 -1.78125 C 1.019531 -1.78125 1.101562 -1.753906 1.1875 -1.703125 C 1.269531 -1.648438 1.328125 -1.59375 1.359375 -1.53125 C 1.585938 -1.070312 2.078125 -0.84375 2.828125 -0.84375 C 2.972656 -0.84375 3.117188 -0.851562 3.265625 -0.875 C 3.410156 -0.90625 3.550781 -0.945312 3.6875 -1 C 3.820312 -1.050781 3.925781 -1.125 4 -1.21875 C 4.082031 -1.3125 4.125 -1.421875 4.125 -1.546875 C 4.125 -1.609375 4.113281 -1.660156 4.09375 -1.703125 C 4.070312 -1.742188 4.035156 -1.78125 3.984375 -1.8125 C 3.929688 -1.84375 3.882812 -1.867188 3.84375 -1.890625 C 3.800781 -1.910156 3.734375 -1.925781 3.640625 -1.9375 C 3.554688 -1.957031 3.492188 -1.96875 3.453125 -1.96875 C 3.421875 -1.976562 3.351562 -1.988281 3.25 -2 C 3.144531 -2.007812 3.078125 -2.015625 3.046875 -2.015625 C 2.398438 -2.085938 1.9375 -2.164062 1.65625 -2.25 C 1 -2.445312 0.632812 -2.800781 0.5625 -3.3125 C 0.550781 -3.382812 0.546875 -3.457031 0.546875 -3.53125 C 0.546875 -3.789062 0.613281 -4.023438 0.75 -4.234375 C 0.882812 -4.453125 1.0625 -4.625 1.28125 -4.75 C 1.507812 -4.875 1.753906 -4.96875 2.015625 -5.03125 C 2.273438 -5.09375 2.539062 -5.125 2.8125 -5.125 Z M 2.8125 -5.125 "/></g></g></g><g fill="#043f83" fill-opacity="1"><g transform="translate(32.296736, 11.5808)"><g><path d="M 1.171875 -5.953125 C 1.171875 -6.085938 1.210938 -6.195312 1.296875 -6.28125 C 1.390625 -6.375 1.503906 -6.421875 1.640625 -6.421875 C 1.765625 -6.421875 1.875 -6.375 1.96875 -6.28125 C 2.0625 -6.195312 2.109375 -6.085938 2.109375 -5.953125 L 2.109375 -5.03125 L 2.734375 -5.03125 C 2.847656 -5.03125 2.945312 -4.984375 3.03125 -4.890625 C 3.125 -4.804688 3.171875 -4.703125 3.171875 -4.578125 C 3.171875 -4.460938 3.125 -4.359375 3.03125 -4.265625 C 2.945312 -4.179688 2.847656 -4.140625 2.734375 -4.140625 L 2.09375 -4.140625 L 2.09375 -1.234375 C 2.09375 -1.078125 2.109375 -0.96875 2.140625 -0.90625 C 2.179688 -0.851562 2.253906 -0.828125 2.359375 -0.828125 C 2.492188 -0.828125 2.613281 -0.863281 2.71875 -0.9375 C 2.8125 -1 2.90625 -1.03125 3 -1.03125 C 3.125 -1.03125 3.234375 -0.984375 3.328125 -0.890625 C 3.421875 -0.804688 3.46875 -0.703125 3.46875 -0.578125 C 3.46875 -0.421875 3.40625 -0.296875 3.28125 -0.203125 C 3.007812 0.00390625 2.710938 0.109375 2.390625 0.109375 C 2.003906 0.109375 1.703125 -0.00390625 1.484375 -0.234375 C 1.265625 -0.472656 1.15625 -0.78125 1.15625 -1.15625 L 1.15625 -1.203125 L 1.171875 -4.140625 L 0.5625 -4.140625 C 0.4375 -4.140625 0.328125 -4.179688 0.234375 -4.265625 C 0.148438 -4.347656 0.109375 -4.453125 0.109375 -4.578125 C 0.109375 -4.703125 0.148438 -4.804688 0.234375 -4.890625 C 0.328125 -4.972656 0.4375 -5.015625 0.5625 -5.015625 L 1.171875 -5.015625 Z M 1.171875 -5.953125 "/></g></g></g><g fill="#043f83" fill-opacity="1"><g transform="translate(35.877615, 11.5808)"><g><path d="M 2.90625 -5.140625 C 3.238281 -5.140625 3.5625 -5.046875 3.875 -4.859375 C 4.195312 -4.671875 4.425781 -4.460938 4.5625 -4.234375 L 4.609375 -4.6875 C 4.609375 -4.8125 4.644531 -4.921875 4.71875 -5.015625 C 4.800781 -5.109375 4.90625 -5.15625 5.03125 -5.15625 C 5.15625 -5.15625 5.265625 -5.109375 5.359375 -5.015625 C 5.453125 -4.921875 5.5 -4.8125 5.5 -4.6875 L 5.5 -4.671875 L 5.484375 -0.34375 C 5.484375 -0.21875 5.4375 -0.109375 5.34375 -0.015625 C 5.257812 0.078125 5.148438 0.125 5.015625 0.125 C 4.890625 0.125 4.789062 0.0820312 4.71875 0 C 4.644531 -0.09375 4.609375 -0.207031 4.609375 -0.34375 L 4.5625 -0.71875 C 4.40625 -0.445312 4.171875 -0.238281 3.859375 -0.09375 C 3.554688 0.0390625 3.238281 0.109375 2.90625 0.109375 C 2.445312 0.109375 2.019531 -0.0078125 1.625 -0.25 C 1.226562 -0.488281 0.914062 -0.804688 0.6875 -1.203125 C 0.457031 -1.609375 0.34375 -2.039062 0.34375 -2.5 C 0.34375 -2.957031 0.453125 -3.390625 0.671875 -3.796875 C 0.898438 -4.203125 1.210938 -4.523438 1.609375 -4.765625 C 2.003906 -5.015625 2.4375 -5.140625 2.90625 -5.140625 Z M 4.53125 -2.515625 C 4.53125 -2.972656 4.375 -3.367188 4.0625 -3.703125 C 3.75 -4.035156 3.363281 -4.203125 2.90625 -4.203125 C 2.445312 -4.203125 2.0625 -4.035156 1.75 -3.703125 C 1.4375 -3.367188 1.28125 -2.972656 1.28125 -2.515625 C 1.28125 -2.054688 1.4375 -1.660156 1.75 -1.328125 C 2.070312 -0.992188 2.457031 -0.828125 2.90625 -0.828125 C 3.351562 -0.828125 3.734375 -0.992188 4.046875 -1.328125 C 4.367188 -1.660156 4.53125 -2.054688 4.53125 -2.515625 Z M 4.53125 -2.515625 "/></g></g></g><g fill="#043f83" fill-opacity="1"><g transform="translate(22.851004, 20.998856)"><g><path d="M 4.34375 0 L 2.6875 -2.453125 L 2.015625 -2.453125 L 2.015625 0 L 0.703125 0 L 0.703125 -6.46875 L 3.046875 -6.46875 C 3.878906 -6.46875 4.488281 -6.316406 4.875 -6.015625 C 5.257812 -5.722656 5.453125 -5.234375 5.453125 -4.546875 C 5.453125 -3.992188 5.335938 -3.550781 5.109375 -3.21875 C 4.878906 -2.894531 4.550781 -2.691406 4.125 -2.609375 L 5.84375 0 Z M 4.125 -4.5 C 4.125 -4.820312 4.039062 -5.039062 3.875 -5.15625 C 3.707031 -5.269531 3.429688 -5.328125 3.046875 -5.328125 L 2.015625 -5.328125 L 2.015625 -3.59375 L 2.984375 -3.59375 C 3.285156 -3.59375 3.515625 -3.617188 3.671875 -3.671875 C 3.828125 -3.734375 3.941406 -3.820312 4.015625 -3.9375 C 4.085938 -4.0625 4.125 -4.25 4.125 -4.5 Z M 4.125 -4.5 "/></g></g></g><g fill="#043f83" fill-opacity="1"><g transform="translate(28.853417, 20.998856)"><g><path d="M 5.140625 -2.4375 C 5.140625 -1.625 4.945312 -0.988281 4.5625 -0.53125 C 4.1875 -0.0820312 3.59375 0.140625 2.78125 0.140625 C 1.21875 0.140625 0.4375 -0.71875 0.4375 -2.4375 C 0.4375 -3.269531 0.625 -3.910156 1 -4.359375 C 1.375 -4.816406 1.96875 -5.046875 2.78125 -5.046875 C 3.59375 -5.046875 4.1875 -4.816406 4.5625 -4.359375 C 4.945312 -3.910156 5.140625 -3.269531 5.140625 -2.4375 Z M 3.890625 -2.4375 C 3.890625 -2.976562 3.800781 -3.375 3.625 -3.625 C 3.457031 -3.875 3.175781 -4 2.78125 -4 C 2.394531 -4 2.113281 -3.867188 1.9375 -3.609375 C 1.757812 -3.359375 1.671875 -2.96875 1.671875 -2.4375 C 1.671875 -1.914062 1.753906 -1.53125 1.921875 -1.28125 C 2.097656 -1.03125 2.382812 -0.90625 2.78125 -0.90625 C 3.175781 -0.90625 3.457031 -1.023438 3.625 -1.265625 C 3.800781 -1.515625 3.890625 -1.90625 3.890625 -2.4375 Z M 3.890625 -2.4375 "/></g></g></g><g fill="#043f83" fill-opacity="1"><g transform="translate(34.416401, 20.998856)"><g><path d="M 4.734375 -0.703125 C 4.546875 -0.421875 4.296875 -0.207031 3.984375 -0.0625 C 3.679688 0.0703125 3.296875 0.140625 2.828125 0.140625 C 2.035156 0.140625 1.4375 -0.0703125 1.03125 -0.5 C 0.632812 -0.9375 0.4375 -1.578125 0.4375 -2.421875 C 0.4375 -3.242188 0.628906 -3.882812 1.015625 -4.34375 C 1.410156 -4.8125 2 -5.046875 2.78125 -5.046875 C 3.207031 -5.046875 3.582031 -4.976562 3.90625 -4.84375 C 4.238281 -4.707031 4.488281 -4.492188 4.65625 -4.203125 L 3.765625 -3.5625 C 3.648438 -3.707031 3.519531 -3.816406 3.375 -3.890625 C 3.226562 -3.960938 3.039062 -4 2.8125 -4 C 2.40625 -4 2.113281 -3.867188 1.9375 -3.609375 C 1.757812 -3.359375 1.671875 -2.96875 1.671875 -2.4375 C 1.671875 -1.90625 1.757812 -1.515625 1.9375 -1.265625 C 2.125 -1.023438 2.429688 -0.90625 2.859375 -0.90625 C 3.046875 -0.90625 3.21875 -0.929688 3.375 -0.984375 C 3.53125 -1.046875 3.679688 -1.164062 3.828125 -1.34375 Z M 4.734375 -0.703125 "/></g></g></g><g fill="#043f83" fill-opacity="1"><g transform="translate(39.366991, 20.998856)"><g><path d="M 3.84375 0 L 3.84375 -2.703125 C 3.84375 -3.222656 3.789062 -3.566406 3.6875 -3.734375 C 3.59375 -3.898438 3.425781 -3.984375 3.1875 -3.984375 C 2.820312 -3.984375 2.390625 -3.75 1.890625 -3.28125 L 1.890625 0 L 0.671875 0 L 0.671875 -6.96875 L 1.890625 -6.96875 L 1.890625 -4.265625 C 2.140625 -4.523438 2.410156 -4.71875 2.703125 -4.84375 C 2.992188 -4.976562 3.273438 -5.046875 3.546875 -5.046875 C 4.097656 -5.046875 4.484375 -4.890625 4.703125 -4.578125 C 4.929688 -4.273438 5.046875 -3.84375 5.046875 -3.28125 L 5.046875 0 Z M 3.84375 0 "/></g></g></g><g fill="#043f83" fill-opacity="1"><g transform="translate(45.056197, 20.998856)"><g><path d="M 3.578125 0 L 3.578125 -0.515625 C 3.097656 -0.078125 2.585938 0.140625 2.046875 0.140625 C 1.492188 0.140625 1.078125 0 0.796875 -0.28125 C 0.523438 -0.5625 0.390625 -0.925781 0.390625 -1.375 C 0.390625 -1.726562 0.457031 -2.019531 0.59375 -2.25 C 0.738281 -2.476562 0.953125 -2.65625 1.234375 -2.78125 C 1.515625 -2.90625 1.914062 -2.992188 2.4375 -3.046875 L 3.46875 -3.15625 L 3.46875 -3.375 C 3.46875 -3.644531 3.382812 -3.832031 3.21875 -3.9375 C 3.0625 -4.039062 2.820312 -4.09375 2.5 -4.09375 C 2.238281 -4.09375 2.015625 -4.046875 1.828125 -3.953125 C 1.640625 -3.867188 1.5 -3.742188 1.40625 -3.578125 L 0.46875 -4.1875 C 0.632812 -4.46875 0.890625 -4.679688 1.234375 -4.828125 C 1.585938 -4.972656 2.015625 -5.046875 2.515625 -5.046875 C 3.285156 -5.046875 3.835938 -4.910156 4.171875 -4.640625 C 4.515625 -4.378906 4.6875 -3.941406 4.6875 -3.328125 L 4.6875 0 Z M 3.46875 -2.28125 L 2.859375 -2.21875 C 2.429688 -2.1875 2.117188 -2.101562 1.921875 -1.96875 C 1.734375 -1.84375 1.640625 -1.648438 1.640625 -1.390625 C 1.640625 -1.171875 1.703125 -1.019531 1.828125 -0.9375 C 1.953125 -0.851562 2.113281 -0.8125 2.3125 -0.8125 C 2.46875 -0.8125 2.648438 -0.859375 2.859375 -0.953125 C 3.066406 -1.046875 3.269531 -1.175781 3.46875 -1.34375 Z M 3.46875 -2.28125 "/></g></g></g></svg>